# Created by FreeCAD <http://www.freecadweb.org>
v -37681.835938 -16900.000000 8950.000000
v -32173.400391 -16900.000000 8950.000000
v -37681.835938 -17100.000000 8950.000000
v -32173.400391 -17100.000000 8950.000000
v -32173.400391 -17100.000000 13850.000000
v -32173.400391 -16900.000000 13850.000000
v -37681.835938 -16900.000000 13850.000000
v -37681.835938 -17100.000000 13850.000000
v 36150.000000 3900.000000 13850.000000
v 41850.000000 3900.000000 13850.000000
v 41850.000000 4100.000000 13850.000000
v 36150.000000 4100.000000 13850.000000
v 36150.000000 4100.000000 8950.000000
v 36150.000000 3900.000000 8950.000000
v 41850.000000 3900.000000 8950.000000
v 41850.000000 4100.000000 8950.000000
v -38100.000000 -3015.553955 13850.000000
v -37900.000000 2450.000000 13850.000000
v -38100.000000 2450.000000 13850.000000
v -37900.000000 -3015.553955 13850.000000
v -38100.000000 -3015.553955 8950.000000
v -37900.000000 -3015.553955 8950.000000
v -38100.000000 2450.000000 8950.000000
v -37900.000000 2450.000000 8950.000000
v -38000.000000 -17000.000000 8900.000000
v -38000.000000 4000.000000 8900.000000
v -38000.000000 -17000.000000 8890.000000
v -38000.000000 4000.000000 8890.000000
v 42000.000000 -17000.000000 8900.000000
v 42000.000000 -17000.000000 8890.000000
v 42000.000000 4000.000000 8900.000000
v 42000.000000 4000.000000 8890.000000
v 42100.000000 4100.000000 8900.000000
v 42100.000000 -17100.000000 8900.000000
v -38100.000000 -17100.000000 8900.000000
v -38100.000000 4100.000000 8900.000000
v -38100.000000 -3015.553955 8950.000000
v -38100.000000 -17100.000000 13900.000000
v -38100.000000 -3015.553955 13850.000000
v -38100.000000 2450.000000 8950.000000
v -38100.000000 2450.000000 13850.000000
v -38100.000000 4100.000000 13900.000000
v -32173.400391 -17100.000000 8950.000000
v 42100.000000 -17100.000000 13900.000000
v -32173.400391 -17100.000000 13850.000000
v -37681.835938 -17100.000000 13850.000000
v -37681.835938 -17100.000000 8950.000000
v 36150.000000 4100.000000 13850.000000
v 36150.000000 4100.000000 8950.000000
v 42100.000000 4100.000000 13900.000000
v 41850.000000 4100.000000 13850.000000
v 41850.000000 4100.000000 8950.000000
v 42000.000000 -17000.000000 13900.000000
v 42000.000000 4000.000000 13900.000000
v -38000.000000 -17000.000000 13900.000000
v -38000.000000 4000.000000 13900.000000
v -37900.000000 2450.000000 8950.000000
v -37900.000000 2450.000000 13850.000000
v -37900.000000 -3015.553955 8950.000000
v -37900.000000 -3015.553955 13850.000000
v -32173.400391 -16900.000000 8950.000000
v -37681.835938 -16900.000000 8950.000000
v -32173.400391 -16900.000000 13850.000000
v -37681.835938 -16900.000000 13850.000000
v 41850.000000 3900.000000 8950.000000
v 41850.000000 3900.000000 13850.000000
v 36150.000000 3900.000000 8950.000000
v 36150.000000 3900.000000 13850.000000
v 41900.000000 -16900.000000 13900.000000
v 41900.000000 3900.000000 13900.000000
v -37900.000000 -16900.000000 13900.000000
v -37900.000000 3900.000000 13900.000000
v -37900.000000 -16900.000000 8900.000000
v -37900.000000 -16900.000000 13890.000000
v -37900.000000 3900.000000 13890.000000
v -37900.000000 3900.000000 8900.000000
v 41900.000000 -16900.000000 8900.000000
v 41900.000000 -16900.000000 13890.000000
v 41900.000000 3900.000000 13890.000000
v 41900.000000 3900.000000 8900.000000
vn 0.000000 0.000000 -1.000000
vn 0.000000 0.000000 -1.000000
vn 1.000000 0.000000 0.000000
vn 1.000000 0.000000 -0.000000
vn 0.000000 0.000000 1.000000
vn 0.000000 0.000000 1.000000
vn -1.000000 -0.000000 -0.000000
vn -1.000000 0.000000 0.000000
vn 0.000000 1.000000 0.000000
vn 0.000000 1.000000 0.000000
vn 0.000000 -1.000000 0.000000
vn 0.000000 -1.000000 0.000000
vn 0.000000 0.000000 1.000000
vn 0.000000 0.000000 1.000000
vn -1.000000 0.000000 0.000000
vn -1.000000 0.000000 0.000000
vn 0.000000 0.000000 -1.000000
vn 0.000000 0.000000 -1.000000
vn 1.000000 0.000000 0.000000
vn 1.000000 -0.000000 0.000000
vn 0.000000 -1.000000 0.000000
vn 0.000000 -1.000000 0.000000
vn 0.000000 1.000000 0.000000
vn 0.000000 1.000000 0.000000
vn 0.000000 0.000000 1.000000
vn 0.000000 -0.000000 1.000000
vn 0.000000 -1.000000 0.000000
vn 0.000000 -1.000000 0.000000
vn 0.000000 0.000000 -1.000000
vn -0.000000 -0.000000 -1.000000
vn 0.000000 1.000000 0.000000
vn 0.000000 1.000000 0.000000
vn 1.000000 0.000000 0.000000
vn 1.000000 -0.000000 0.000000
vn -1.000000 0.000000 0.000000
vn -1.000000 0.000000 0.000000
vn -1.000000 0.000000 0.000000
vn -1.000000 0.000000 0.000000
vn -0.000000 -1.000000 -0.000000
vn 0.000000 -1.000000 0.000000
vn -0.000000 1.000000 0.000000
vn 0.000000 1.000000 0.000000
vn 0.000000 0.000000 -1.000000
vn 0.000000 -0.000000 -1.000000
vn 0.000000 -0.000000 -1.000000
vn 0.000000 0.000000 -1.000000
vn 0.000000 0.000000 -1.000000
vn 0.000000 0.000000 -1.000000
vn 0.000000 0.000000 -1.000000
vn 0.000000 0.000000 -1.000000
vn 0.000000 0.000000 -1.000000
vn 0.000000 0.000000 -1.000000
vn 1.000000 0.000000 0.000000
vn 1.000000 0.000000 0.000000
vn -1.000000 -0.000000 0.000000
vn -1.000000 0.000000 0.000000
vn -1.000000 0.000000 0.000000
vn -1.000000 0.000000 0.000000
vn -1.000000 0.000000 0.000000
vn -1.000000 0.000000 0.000000
vn -1.000000 0.000000 0.000000
vn -1.000000 0.000000 0.000000
vn 0.000000 -1.000000 0.000000
vn 0.000000 -1.000000 0.000000
vn 0.000000 -1.000000 0.000000
vn 0.000000 -1.000000 0.000000
vn 0.000000 -1.000000 0.000000
vn 0.000000 -1.000000 0.000000
vn -0.000000 -1.000000 0.000000
vn 0.000000 -1.000000 0.000000
vn 0.000000 1.000000 0.000000
vn 0.000000 1.000000 -0.000000
vn 0.000000 1.000000 0.000000
vn 0.000000 1.000000 0.000000
vn 0.000000 1.000000 0.000000
vn 0.000000 1.000000 -0.000000
vn -0.000000 1.000000 0.000000
vn 0.000000 1.000000 0.000000
vn 1.000000 -0.000000 0.000000
vn 1.000000 0.000000 0.000000
vn 0.000000 0.000000 1.000000
vn 0.000000 -0.000000 1.000000
vn 0.000000 0.000000 1.000000
vn 0.000000 0.000000 1.000000
vn 0.000000 0.000000 1.000000
vn 0.000000 0.000000 1.000000
vn 0.000000 0.000000 1.000000
vn 0.000000 0.000000 1.000000
vn 0.000000 -1.000000 0.000000
vn 0.000000 -1.000000 0.000000
vn 0.000000 0.000000 1.000000
vn 0.000000 -0.000000 1.000000
vn 0.000000 1.000000 0.000000
vn 0.000000 1.000000 0.000000
vn -0.000000 0.000000 -1.000000
vn 0.000000 -0.000000 -1.000000
vn 0.000000 0.000000 1.000000
vn 0.000000 0.000000 1.000000
vn -1.000000 0.000000 0.000000
vn -1.000000 -0.000000 -0.000000
vn 0.000000 0.000000 -1.000000
vn 0.000000 0.000000 -1.000000
vn 1.000000 0.000000 0.000000
vn 1.000000 0.000000 -0.000000
vn -1.000000 0.000000 0.000000
vn -1.000000 0.000000 0.000000
vn 0.000000 0.000000 1.000000
vn -0.000000 0.000000 1.000000
vn 1.000000 -0.000000 0.000000
vn 1.000000 0.000000 0.000000
vn 0.000000 0.000000 -1.000000
vn -0.000000 0.000000 -1.000000
vn 0.000000 0.000000 1.000000
vn 0.000000 -0.000000 1.000000
vn 0.000000 0.000000 1.000000
vn 0.000000 0.000000 1.000000
vn 0.000000 0.000000 1.000000
vn 0.000000 0.000000 1.000000
vn 0.000000 0.000000 1.000000
vn 0.000000 0.000000 1.000000
vn 1.000000 0.000000 0.000000
vn 1.000000 0.000000 0.000000
vn 1.000000 -0.000000 0.000000
vn 1.000000 -0.000000 0.000000
vn 1.000000 0.000000 0.000000
vn 1.000000 -0.000000 0.000000
vn 1.000000 0.000000 0.000000
vn 1.000000 0.000000 0.000000
vn 0.000000 1.000000 -0.000000
vn 0.000000 1.000000 0.000000
vn 0.000000 1.000000 -0.000000
vn 0.000000 1.000000 0.000000
vn 0.000000 1.000000 0.000000
vn 0.000000 1.000000 0.000000
vn 0.000000 1.000000 0.000000
vn -0.000000 1.000000 0.000000
vn 0.000000 -1.000000 0.000000
vn 0.000000 -1.000000 0.000000
vn 0.000000 -1.000000 0.000000
vn 0.000000 -1.000000 0.000000
vn 0.000000 -1.000000 0.000000
vn 0.000000 -1.000000 0.000000
vn 0.000000 -1.000000 0.000000
vn -0.000000 -1.000000 0.000000
vn 0.000000 0.000000 1.000000
vn 0.000000 0.000000 1.000000
vn 0.000000 0.000000 1.000000
vn 0.000000 0.000000 1.000000
vn 0.000000 0.000000 -1.000000
vn 0.000000 0.000000 -1.000000
vn -1.000000 0.000000 0.000000
vn -1.000000 -0.000000 0.000000
g Entrance2
f 1//1 2//1 3//1
f 3//2 2//2 4//2
f 2//3 5//3 4//3
f 2//4 6//4 5//4
f 6//5 7//5 5//5
f 5//6 7//6 8//6
f 7//7 1//7 8//7
f 8//8 1//8 3//8
f 2//9 1//9 7//9
f 6//10 2//10 7//10
f 3//11 4//11 8//11
f 4//12 5//12 8//12
g Entrance1
f 9//13 10//13 11//13
f 9//14 11//14 12//14
f 13//15 9//15 12//15
f 14//16 9//16 13//16
f 15//17 14//17 13//17
f 15//18 13//18 16//18
f 10//19 15//19 16//19
f 10//20 16//20 11//20
f 15//21 10//21 14//21
f 14//22 10//22 9//22
f 11//23 16//23 13//23
f 11//24 13//24 12//24
g Entrance3
f 17//25 18//25 19//25
f 20//26 18//26 17//26
f 21//27 20//27 17//27
f 22//28 20//28 21//28
f 23//29 22//29 21//29
f 24//30 22//30 23//30
f 19//31 24//31 23//31
f 18//32 24//32 19//32
f 22//33 24//33 18//33
f 20//34 22//34 18//34
f 23//35 21//35 19//35
f 21//36 17//36 19//36
g walls
f 25//37 26//37 27//37
f 27//38 26//38 28//38
f 29//39 25//39 30//39
f 30//40 25//40 27//40
f 26//41 31//41 28//41
f 28//42 31//42 32//42
f 33//43 29//43 31//43
f 33//44 34//44 29//44
f 25//45 34//45 35//45
f 25//46 29//46 34//46
f 36//47 26//47 25//47
f 36//48 25//48 35//48
f 36//49 33//49 31//49
f 36//50 31//50 26//50
f 28//51 32//51 30//51
f 28//52 30//52 27//52
f 31//53 29//53 32//53
f 32//54 29//54 30//54
f 37//55 35//55 38//55
f 37//56 38//56 39//56
f 40//57 41//57 42//57
f 36//58 40//58 42//58
f 38//59 42//59 41//59
f 38//60 41//60 39//60
f 36//61 35//61 37//61
f 36//62 37//62 40//62
f 43//63 34//63 44//63
f 43//64 44//64 45//64
f 38//65 46//65 45//65
f 47//66 46//66 38//66
f 35//67 43//67 47//67
f 35//68 47//68 38//68
f 44//69 38//69 45//69
f 35//70 34//70 43//70
f 48//71 36//71 42//71
f 49//72 36//72 48//72
f 50//73 51//73 48//73
f 33//74 52//74 51//74
f 33//75 49//75 52//75
f 33//76 51//76 50//76
f 42//77 50//77 48//77
f 33//78 36//78 49//78
f 44//79 33//79 50//79
f 34//80 33//80 44//80
f 53//81 50//81 54//81
f 44//82 50//82 53//82
f 44//83 55//83 38//83
f 53//84 55//84 44//84
f 56//85 42//85 55//85
f 55//86 42//86 38//86
f 50//87 42//87 54//87
f 54//88 42//88 56//88
f 57//89 41//89 40//89
f 57//90 58//90 41//90
f 59//91 40//91 37//91
f 59//92 57//92 40//92
f 60//93 37//93 39//93
f 60//94 59//94 37//94
f 58//95 39//95 41//95
f 58//96 60//96 39//96
f 61//97 62//97 47//97
f 61//98 47//98 43//98
f 45//99 61//99 43//99
f 63//100 61//100 45//100
f 64//101 63//101 45//101
f 64//102 45//102 46//102
f 47//103 64//103 46//103
f 62//104 64//104 47//104
f 65//105 66//105 52//105
f 52//106 66//106 51//106
f 67//107 65//107 49//107
f 49//108 65//108 52//108
f 68//109 49//109 48//109
f 68//110 67//110 49//110
f 66//111 68//111 51//111
f 51//112 68//112 48//112
f 69//113 54//113 70//113
f 53//114 54//114 69//114
f 53//115 71//115 55//115
f 69//116 71//116 53//116
f 72//117 56//117 71//117
f 71//118 56//118 55//118
f 54//119 56//119 70//119
f 70//120 56//120 72//120
f 73//121 59//121 74//121
f 74//122 59//122 60//122
f 58//123 57//123 75//123
f 57//124 76//124 75//124
f 73//125 76//125 59//125
f 59//126 76//126 57//126
f 75//127 74//127 58//127
f 58//128 74//128 60//128
f 77//129 61//129 78//129
f 78//130 61//130 63//130
f 64//131 74//131 63//131
f 64//132 62//132 74//132
f 61//133 73//133 62//133
f 62//134 73//134 74//134
f 77//135 73//135 61//135
f 74//136 78//136 63//136
f 76//137 67//137 75//137
f 75//138 67//138 68//138
f 66//139 79//139 68//139
f 66//140 65//140 79//140
f 67//141 80//141 65//141
f 65//142 80//142 79//142
f 76//143 80//143 67//143
f 79//144 75//144 68//144
f 70//145 71//145 69//145
f 70//146 72//146 71//146
f 80//147 73//147 77//147
f 80//148 76//148 73//148
f 74//149 79//149 78//149
f 75//150 79//150 74//150
f 80//151 77//151 79//151
f 79//152 77//152 78//152
