<?xml version="1.0" standalone="no"?>
<!DOCTYPE svg PUBLIC "-//W3C//DTD SVG 20010904//EN"
 "http://www.w3.org/TR/2001/REC-SVG-20010904/DTD/svg10.dtd">
<svg version="1.0" xmlns="http://www.w3.org/2000/svg"
 width="512.000000pt" height="512.000000pt" viewBox="0 0 512.000000 512.000000"
 preserveAspectRatio="xMidYMid meet">
<metadata>
Created by potrace 1.15, written by Peter Selinger 2001-2017
</metadata>
<g transform="translate(0.000000,512.000000) scale(0.100000,-0.100000)"
fill="#000000" stroke="none">
<path d="M259 4861 l-259 -259 0 -108 0 -108 76 74 c97 94 542 540 609 609
l49 51 -108 0 -108 0 -259 -259z"/>
<path d="M709 4411 l-709 -708 0 -109 0 -108 76 74 c102 100 1445 1443 1509
1509 l49 51 -108 0 -109 0 -708 -709z"/>
<path d="M1158 3962 l-1158 -1159 0 -101 0 -101 129 -129 c71 -71 150 -146
175 -167 25 -21 46 -40 46 -44 0 -3 -79 -86 -175 -184 l-175 -177 0 -107 0
-107 76 74 c42 41 150 148 239 236 l163 161 89 -66 c49 -36 137 -97 196 -136
58 -38 106 -73 107 -76 0 -3 -196 -201 -435 -441 l-435 -436 0 -108 0 -108 76
74 c42 41 271 269 509 506 l431 430 80 -44 c43 -25 143 -76 222 -113 78 -38
142 -70 142 -72 0 -2 -329 -332 -730 -734 l-730 -731 0 -51 0 -51 59 0 59 0
752 750 752 751 176 -64 c98 -35 208 -72 245 -82 37 -10 70 -21 72 -25 2 -4
-290 -302 -650 -662 -360 -360 -655 -658 -655 -662 0 -3 47 -6 104 -6 l104 0
642 641 643 641 120 -26 c66 -15 193 -38 281 -52 88 -14 162 -27 163 -28 2 -1
-258 -264 -577 -583 -319 -319 -580 -583 -580 -587 0 -3 47 -6 104 -6 l104 0
582 581 583 581 131 -7 c166 -8 462 10 494 31 43 28 47 54 23 148 -11 47 -34
121 -50 165 l-29 79 67 12 c249 46 410 192 451 409 5 26 16 48 26 54 43 24
122 110 147 159 15 29 32 77 39 107 12 51 17 56 75 93 35 22 81 61 104 86 48
54 104 164 114 223 6 35 32 66 226 262 l219 222 0 141 c0 136 -1 144 -28 195
-41 80 -94 113 -185 117 -62 3 -81 0 -132 -23 -75 -34 -167 -66 -172 -61 -2 2
113 122 256 267 l261 263 0 103 c0 57 -3 103 -6 103 -3 0 -184 -177 -401 -394
l-395 -394 -101 -6 c-56 -3 -165 -8 -242 -11 -139 -6 -317 -29 -363 -46 -14
-5 -27 -8 -29 -5 -2 2 343 351 766 776 l771 772 0 59 0 59 -51 0 -51 0 -871
-870 c-479 -479 -874 -869 -878 -868 -4 2 -38 38 -76 80 -70 78 -168 168 -229
210 -19 13 -34 26 -34 30 0 5 294 302 653 662 358 359 674 676 702 705 l49 51
-108 0 -108 0 -646 -644 c-354 -355 -654 -654 -667 -666 l-22 -20 -69 31
c-100 46 -245 93 -350 114 l-90 19 530 531 c292 293 553 555 581 584 l49 51
-108 0 -108 0 -556 -555 c-305 -305 -565 -564 -577 -575 -16 -15 -43 -22 -130
-29 -140 -12 -244 -34 -371 -76 -376 -125 -697 -406 -874 -765 l-42 -85 -87
-34 c-47 -18 -132 -55 -187 -81 l-101 -47 1071 1072 c589 590 1093 1095 1121
1124 l49 51 -108 0 -109 0 -1159 -1158z m1152 -177 c358 -69 676 -275 873
-565 l58 -86 -16 -59 c-9 -33 -21 -127 -26 -210 -21 -310 -72 -520 -174 -727
-76 -152 -63 -143 -190 -129 -59 7 -173 25 -253 42 -152 30 -183 30 -207 -4
-21 -29 -19 -60 5 -90 25 -31 104 -50 426 -102 l31 -5 -20 -58 c-40 -119 15
-240 132 -289 75 -32 197 -9 245 46 18 20 29 21 156 21 l138 0 35 -102 c20
-57 39 -113 42 -124 5 -21 2 -22 -115 -29 -196 -12 -546 14 -810 60 -867 151
-1716 566 -2322 1136 -65 61 -118 114 -118 119 0 18 259 150 428 218 l72 29
113 -111 c169 -169 397 -331 662 -474 245 -133 630 -289 680 -276 44 11 67 62
49 109 -9 21 -34 34 -199 95 -168 62 -459 203 -610 295 -202 123 -427 302
-534 425 l-39 46 28 60 c15 34 52 99 83 145 235 356 591 567 1032 613 73 7
259 -3 345 -19z m2635 -300 c47 -47 30 -102 -45 -140 -189 -96 -420 -139 -800
-150 -317 -10 -419 -30 -496 -98 -68 -59 -82 -110 -104 -382 -29 -352 -131
-655 -309 -922 -98 -146 -154 -182 -208 -131 -40 37 -31 70 57 199 154 229
252 482 289 749 6 41 15 145 21 230 13 215 50 311 147 388 110 86 208 107 594
127 422 22 542 43 739 134 59 27 86 26 115 -4z m-211 -422 c-84 -163 -344
-232 -881 -233 l-193 0 0 45 c0 25 6 61 14 79 26 62 53 66 566 96 200 12 334
29 445 59 39 10 72 16 74 15 2 -2 -9 -29 -25 -61z m-224 -348 c-35 -91 -114
-167 -216 -208 -121 -49 -238 -67 -468 -74 l-209 -6 6 39 c4 21 12 78 19 127
l12 87 207 0 c237 0 416 13 539 39 121 26 121 26 110 -4z m-313 -437 c-69
-119 -219 -167 -519 -168 -115 0 -148 3 -148 13 0 7 11 44 23 83 l24 69 244 7
c144 5 271 13 309 22 97 21 95 21 67 -26z m-197 -311 c0 -27 -61 -107 -107
-141 -63 -46 -175 -82 -295 -95 -112 -13 -271 -15 -266 -3 3 7 64 117 105 189
l24 43 207 0 c114 0 225 4 247 9 60 13 85 12 85 -2z"/>
<path d="M3858 1262 c-686 -687 -1248 -1252 -1248 -1255 0 -4 47 -7 105 -7
l104 0 1151 1150 1150 1151 0 104 c0 58 -3 105 -7 105 -3 0 -568 -562 -1255
-1248z"/>
<path d="M4309 812 c-440 -440 -799 -802 -799 -805 0 -4 47 -7 104 -7 l105 0
700 701 701 700 0 105 c0 57 -3 104 -6 104 -4 0 -366 -359 -805 -798z"/>
<path d="M4759 362 c-192 -192 -349 -352 -349 -355 0 -4 46 -7 103 -7 l104 0
251 251 252 252 0 103 c0 57 -3 104 -6 104 -4 0 -163 -157 -355 -348z"/>
</g>
</svg>
